<svg width="18" height="20" viewBox="0 0 18 20" fill="none" xmlns="http://www.w3.org/2000/svg">
<path d="M3.88476 19.3333C3.36268 19.3333 2.91798 19.1498 2.55068 18.7827C2.18357 18.4154 2.00001 17.9707 2.00001 17.4486V3H0.833344V1.83333H5.50001V0.935875H12.5V1.83333H17.1667V3H16V17.4486C16 17.9856 15.8202 18.434 15.4604 18.7938C15.1007 19.1535 14.6523 19.3333 14.1153 19.3333H3.88476ZM14.8333 3H3.16668V17.4486C3.16668 17.658 3.23396 17.8301 3.36851 17.9648C3.50326 18.0994 3.67534 18.1667 3.88476 18.1667H14.1153C14.2949 18.1667 14.4595 18.0919 14.6091 17.9424C14.7586 17.7928 14.8333 17.6283 14.8333 17.4486V3ZM6.44239 15.8333H7.60905V5.33333H6.44239V15.8333ZM10.391 15.8333H11.5576V5.33333H10.391V15.8333Z" fill="black"/>
</svg>
