<svg width="24" height="24" viewBox="0 0 24 24" fill="none" xmlns="http://www.w3.org/2000/svg">
<path d="M8.6478 3.87187C7.28374 4.09219 6.21968 4.97812 5.78374 6.25781C5.68061 6.56719 5.65249 6.74062 5.63374 7.22812C5.6103 7.96406 5.68999 8.37187 5.97593 8.94375C6.57593 10.1344 7.74311 10.875 9.01343 10.875H9.4353L9.40249 10.5891C9.38843 10.4297 9.37436 10.2516 9.37436 10.2C9.37436 10.1062 9.34624 10.0969 9.0228 10.0875C7.87436 10.0547 6.85718 9.25781 6.51499 8.11875C6.37905 7.67344 6.3978 6.92344 6.55249 6.49687C6.93218 5.46094 7.87436 4.73906 8.95249 4.65937C9.90405 4.58906 10.9259 5.11875 11.4322 5.93906C11.5166 6.075 11.5962 6.1875 11.6056 6.1875C11.6619 6.1875 12.2806 5.85469 12.2806 5.82187C12.2806 5.69531 11.9244 5.20781 11.5822 4.87031C11.2447 4.5375 11.0947 4.42969 10.7291 4.24687C10.49 4.12969 10.1619 3.99844 10.0072 3.96094C9.71655 3.88594 8.90093 3.83437 8.6478 3.87187Z" fill="black"/>
<path d="M13.6734 6.18751C12.2344 6.44532 10.9875 7.40157 10.4063 8.69064C10.1203 9.31876 10.0547 9.65157 10.0547 10.5C10.0547 11.1609 10.0688 11.325 10.1625 11.6391C10.6078 13.1813 11.7141 14.2734 13.2984 14.7281C13.8188 14.8781 14.9344 14.8781 15.4922 14.7234C16.5 14.4516 17.4141 13.8 17.9953 12.9422C18.7734 11.7938 18.9563 10.275 18.4688 8.96251C17.9813 7.66407 16.8422 6.63282 15.4922 6.27657C15.0703 6.16876 14.0578 6.1172 13.6734 6.18751ZM15.0844 7.01251C15.9563 7.19064 16.8047 7.74845 17.2922 8.45626C17.7234 9.08439 17.925 9.73126 17.925 10.5C17.925 11.2688 17.7234 11.9156 17.2922 12.5438C16.6172 13.5281 15.3984 14.1188 14.1797 14.0484C12.2953 13.9406 10.8281 12.3891 10.8281 10.5C10.8281 8.25939 12.9 6.56251 15.0844 7.01251Z" fill="black"/>
<path d="M6.09356 10.4531C4.96856 11.1281 4.22325 12.0141 3.73106 13.2562C3.51075 13.8094 3.29981 14.7187 3.3795 14.7656C3.40763 14.7844 3.55763 14.8172 3.71231 14.8312C3.867 14.85 4.017 14.8734 4.04981 14.8875C4.09669 14.9062 4.1295 14.8219 4.17169 14.5922C4.40606 13.3172 5.1045 12.1547 6.05606 11.4422L6.32325 11.2406L6.59513 11.4516C7.27013 11.9766 8.13262 12.2812 8.96231 12.2812C9.34669 12.2812 9.93731 12.1875 9.93731 12.1219C9.93731 12.0937 9.89512 11.9203 9.84825 11.7422C9.77325 11.4422 9.7545 11.4141 9.65137 11.4234C8.93887 11.4891 8.71856 11.4891 8.39044 11.4187C7.83262 11.3016 7.317 11.0203 6.867 10.5891L6.48263 10.2187L6.09356 10.4531Z" fill="black"/>
<path d="M5.92969 14.4938C5.46563 14.9391 4.78594 15.586 4.41563 15.9375L3.75 16.575L3.88125 16.9031L4.01719 17.2266L4.64531 17.2406L5.27813 17.2547L5.3625 17.5922C5.77031 19.1672 6.93281 20.3953 8.62031 21.0328C8.94375 21.1547 9.84375 21.3938 9.87188 21.3656C9.9 21.3375 10.1719 20.6578 10.1625 20.6531C10.1531 20.6485 9.99844 20.5266 9.81563 20.3813C9.25781 19.9406 8.83125 19.3313 8.60156 18.6516C8.47969 18.3 8.34375 17.6297 8.34375 17.386V17.25H8.94844H9.55313L9.675 16.9453C9.74063 16.7766 9.79688 16.6219 9.79688 16.5985C9.79688 16.5563 6.87188 13.725 6.80156 13.7016C6.7875 13.6922 6.39375 14.0531 5.92969 14.4938ZM7.66406 15.6328L8.50781 16.4485L8.02031 16.4531H7.53281L7.55625 17.1891C7.58906 18.1735 7.72969 18.7688 8.10469 19.5235L8.37656 20.0625L8.16094 19.9406C6.95625 19.2469 6.28594 18.286 6.02344 16.8797C5.98594 16.6641 5.95313 16.4813 5.95313 16.4719C5.95313 16.4625 5.75625 16.4485 5.5125 16.4438L5.07656 16.4297L5.925 15.6235C6.38906 15.1781 6.78281 14.8125 6.79688 14.8125C6.81094 14.8172 7.2 15.1828 7.66406 15.6328Z" fill="black"/>
<path d="M10.7486 14.4094C10.2939 14.6766 9.66113 15.1406 9.47363 15.3469L9.35645 15.4688L9.62832 15.7453L9.90488 16.0219L10.3221 15.6844C10.5518 15.4969 10.8096 15.3094 10.8986 15.2625L11.058 15.1734L11.3111 15.3938C11.9018 15.9 12.7174 16.2797 13.533 16.4344C14.0814 16.5375 15.0518 16.5047 15.5861 16.3594C16.1158 16.2188 16.9268 15.8109 17.3439 15.4734C17.5361 15.3188 17.7096 15.1875 17.7236 15.1875C17.7893 15.1875 18.3283 15.5766 18.6049 15.8203C19.833 16.9172 20.4799 18.2953 20.5643 19.9781L20.5924 20.5781H15.8768H11.1564V20.9766V21.375H16.2705H21.3846L21.3611 20.3297C21.3377 19.2141 21.2768 18.8109 21.0189 18.0328C20.5221 16.5094 19.4768 15.2578 17.9627 14.3719L17.5736 14.1469L17.1658 14.5406C16.2939 15.3797 15.3564 15.7453 14.208 15.6891C13.5752 15.6609 13.1439 15.5484 12.6143 15.2813C12.2064 15.0797 11.6064 14.6156 11.3814 14.3391C11.3018 14.2359 11.2221 14.1563 11.2033 14.1563C11.1893 14.1563 10.983 14.2688 10.7486 14.4094Z" fill="black"/>
</svg>
