<svg width="22" height="22" viewBox="0 0 22 22" fill="none" xmlns="http://www.w3.org/2000/svg">
<path d="M5 14H2.75C2.28587 14 1.84075 14.1844 1.51256 14.5126C1.18437 14.8408 1 15.2859 1 15.75C1 16.2141 1.18437 16.6593 1.51256 16.9874C1.84075 17.3156 2.28587 17.5 2.75 17.5H12.25C12.7141 17.5 13.1592 17.6844 13.4874 18.0126C13.8156 18.3408 14 18.7859 14 19.25C14 19.7141 13.8156 20.1593 13.4874 20.4874C13.1592 20.8156 12.7141 21 12.25 21H10M15.946 2.17301C16.533 1.58601 16.826 1.29301 17.152 1.15201C17.621 0.949006 18.152 0.949006 18.621 1.15201C18.946 1.29201 19.24 1.58601 19.827 2.17301C20.414 2.76001 20.707 3.05401 20.848 3.37901C21.051 3.84801 21.051 4.37901 20.848 4.84801C20.708 5.17301 20.414 5.46701 19.827 6.05401L14.805 11.076C13.568 12.313 12.95 12.931 12.175 13.298C11.4 13.665 10.529 13.75 8.788 13.922L8 14L8.078 13.212C8.25 11.471 8.335 10.6 8.702 9.82501C9.069 9.05001 9.687 8.43201 10.924 7.19501L15.946 2.17301Z" stroke="black" stroke-width="1.5" stroke-linecap="round" stroke-linejoin="round"/>
</svg>
