<svg width="14" height="14" viewBox="0 0 14 14" fill="none" xmlns="http://www.w3.org/2000/svg">
<path d="M6.9935 0.333252C3.3135 0.333252 0.333496 3.31992 0.333496 6.99992C0.333496 10.6799 3.3135 13.6666 6.9935 13.6666C10.6802 13.6666 13.6668 10.6799 13.6668 6.99992C13.6668 3.31992 10.6802 0.333252 6.9935 0.333252ZM11.6135 4.33325H9.64683C9.43786 3.50766 9.12891 2.71066 8.72683 1.95992C9.94291 2.37859 10.9676 3.22107 11.6135 4.33325ZM7.00016 1.69325C7.5535 2.49325 7.98683 3.37992 8.2735 4.33325H5.72683C6.0135 3.37992 6.44683 2.49325 7.00016 1.69325ZM1.84016 8.33325C1.7335 7.90658 1.66683 7.45992 1.66683 6.99992C1.66683 6.53992 1.7335 6.09325 1.84016 5.66658H4.0935C4.04016 6.10659 4.00016 6.54659 4.00016 6.99992C4.00016 7.45325 4.04016 7.89325 4.0935 8.33325H1.84016ZM2.38683 9.66658H4.3535C4.56683 10.4999 4.8735 11.2999 5.2735 12.0399C4.05653 11.6228 3.03132 10.78 2.38683 9.66658ZM4.3535 4.33325H2.38683C3.03132 3.21989 4.05653 2.37699 5.2735 1.95992C4.87142 2.71066 4.56247 3.50766 4.3535 4.33325ZM7.00016 12.3066C6.44683 11.5066 6.0135 10.6199 5.72683 9.66658H8.2735C7.98683 10.6199 7.5535 11.5066 7.00016 12.3066ZM8.56016 8.33325H5.44016C5.38016 7.89325 5.3335 7.45325 5.3335 6.99992C5.3335 6.54659 5.38016 6.09992 5.44016 5.66658H8.56016C8.62016 6.09992 8.66683 6.54659 8.66683 6.99992C8.66683 7.45325 8.62016 7.89325 8.56016 8.33325ZM8.72683 12.0399C9.12683 11.2999 9.4335 10.4999 9.64683 9.66658H11.6135C10.9676 10.7788 9.94291 11.6212 8.72683 12.0399ZM9.90683 8.33325C9.96016 7.89325 10.0002 7.45325 10.0002 6.99992C10.0002 6.54659 9.96016 6.10659 9.90683 5.66658H12.1602C12.2668 6.09325 12.3335 6.53992 12.3335 6.99992C12.3335 7.45992 12.2668 7.90658 12.1602 8.33325H9.90683Z" fill="black"/>
</svg>
