<svg width="18" height="20" viewBox="0 0 18 20" fill="none" xmlns="http://www.w3.org/2000/svg">
<path d="M11 14H16V19M7.00003 6H2.00003V1M16.418 7.003C15.8574 5.61519 14.9186 4.41251 13.7084 3.53166C12.4983 2.65082 11.0653 2.12714 9.5723 2.02016C8.07933 1.91318 6.5863 2.22718 5.26291 2.92648C3.93952 3.62577 2.83886 4.68231 2.08603 5.976M1.58203 12.997C2.14283 14.3846 3.0816 15.587 4.29166 16.4676C5.50172 17.3483 6.93455 17.8718 8.42732 17.9788C9.92009 18.0858 11.4129 17.7719 12.7362 17.0728C14.0595 16.3737 15.1601 15.3174 15.913 14.024" stroke="black" stroke-width="2" stroke-linecap="round" stroke-linejoin="round"/>
</svg>
