<svg width="21" height="22" viewBox="0 0 21 22" fill="none" xmlns="http://www.w3.org/2000/svg">
<path d="M20.4998 3.49995C20.5 4.18444 20.2995 4.85396 19.9231 5.42565C19.5466 5.99734 19.0108 6.44611 18.382 6.71643C17.7532 6.98674 17.0588 7.06673 16.385 6.94649C15.7112 6.82626 15.0874 6.51107 14.5908 6.03995L7.4048 10.188C7.53213 10.7218 7.53213 11.2781 7.4048 11.812L14.5908 15.961C15.201 15.3826 15.999 15.0433 16.8388 15.0049C17.6787 14.9666 18.5043 15.2319 19.1646 15.7522C19.825 16.2725 20.2759 17.0132 20.4351 17.8387C20.5943 18.6642 20.451 19.5194 20.0314 20.248C19.6119 20.9765 18.9441 21.5297 18.1502 21.8064C17.3563 22.083 16.4894 22.0647 15.7079 21.7547C14.9264 21.4447 14.2826 20.8638 13.8942 20.1181C13.5059 19.3725 13.3989 18.512 13.5928 17.694L6.4038 13.544C5.90684 14.0137 5.28314 14.3276 4.60976 14.4468C3.93639 14.5661 3.24283 14.4854 2.61478 14.2149C1.98672 13.9443 1.45169 13.4957 1.07577 12.9244C0.699846 12.3532 0.499512 11.6843 0.499512 11.0005C0.499512 10.3166 0.699846 9.64773 1.07577 9.07647C1.45169 8.50521 1.98672 8.05659 2.61478 7.78603C3.24283 7.51547 3.93639 7.43483 4.60976 7.55406C5.28314 7.6733 5.90684 7.98719 6.4038 8.45695L13.5938 4.30595C13.4801 3.82537 13.4694 3.32617 13.5624 2.84117C13.6554 2.35616 13.85 1.89632 14.1334 1.49187C14.4167 1.08742 14.7825 0.747524 15.2066 0.494507C15.6307 0.241491 16.1036 0.0810887 16.5941 0.0238408C17.0846 -0.033407 17.5817 0.0137961 18.0526 0.162348C18.5236 0.3109 18.9578 0.557437 19.3267 0.885758C19.6956 1.21408 19.9908 1.61675 20.193 2.06731C20.3952 2.51786 20.4998 3.00611 20.4998 3.49995Z" fill="black"/>
</svg>
