<svg width="23" height="21" viewBox="0 0 23 21" fill="none" xmlns="http://www.w3.org/2000/svg">
<path d="M5.86546 4.51246L5.86483 4.51486C5.74189 4.98118 5.70608 5.89847 5.79883 6.41954L5.79966 6.42436C6.11654 8.25677 7.36278 9.63675 9.2315 10.1754L9.23295 10.1758C9.38698 10.2204 9.45679 10.2351 9.57382 10.245C9.72493 10.2579 9.94963 10.2617 10.414 10.2588L10.414 10.2588H10.4201C10.9153 10.2588 11.1252 10.255 11.2687 10.2403C11.3728 10.2297 11.4403 10.2145 11.6568 10.1475L11.6568 10.1475L11.6617 10.146C12.5231 9.88425 13.124 9.52566 13.7028 8.94688L13.7028 8.94688L13.7056 8.94409C14.2881 8.3662 14.6498 7.75718 14.8999 6.91267L14.9009 6.90923C14.9669 6.68919 15.0241 6.29698 15.0428 5.84515C15.0612 5.39701 15.0376 4.99329 14.9901 4.7539C14.8227 3.94253 14.446 3.16884 13.9133 2.54897L13.911 2.5462C13.402 1.94948 12.366 1.30985 11.5784 1.11957L11.5784 1.1196L11.5706 1.11767C11.3584 1.0646 10.9738 1.01925 10.5409 1.00488C10.107 0.990486 9.73396 1.01085 9.54111 1.04662C7.76342 1.38646 6.33176 2.72577 5.86546 4.51246Z" stroke="black" stroke-width="2"/>
<path d="M19.0447 10.3976L19.046 10.3973C19.2308 10.3574 19.2897 10.3535 19.328 10.3537C19.3713 10.3539 19.4432 10.3599 19.6527 10.4038C19.8174 10.439 19.9104 10.4755 20.0623 10.5841C20.2594 10.7252 20.5306 10.9726 21.0269 11.4716C21.3683 11.8186 21.5747 12.0376 21.7067 12.1928C21.8339 12.3424 21.8562 12.3922 21.8583 12.3968L21.8584 12.397L21.8611 12.403L21.8611 12.403C21.9885 12.6784 22.0252 12.9755 21.9836 13.2191L21.9832 13.2219C21.9476 13.4335 21.9391 13.4619 21.9267 13.4918C21.9175 13.5142 21.884 13.5881 21.7259 13.7796C21.3858 14.1916 20.7053 14.8752 19.2191 16.3643L19.2189 16.3645C17.9818 17.6044 17.3192 18.264 16.9235 18.6349C16.591 18.9465 16.5035 18.9987 16.4734 19.0126L16.4732 19.0122C16.4263 19.0334 16.309 19.0772 15.96 19.1559C15.6179 19.2331 15.1054 19.333 14.2973 19.4806L14.2949 19.4811L14.2949 19.4811C13.3392 19.6582 12.8559 19.7455 12.5805 19.7827C12.5855 19.7465 12.5912 19.7065 12.5978 19.6624C12.6452 19.3441 12.7275 18.8697 12.8526 18.1883C13.0495 17.1253 13.163 16.5475 13.254 16.1911C13.3216 15.9263 13.3635 15.8369 13.3969 15.7829C13.4025 15.7765 13.4099 15.7681 13.4194 15.7576C13.4578 15.7148 13.5139 15.6542 13.5879 15.5757C13.7352 15.4194 13.9405 15.206 14.1903 14.9497C14.689 14.4379 15.3555 13.7644 16.0688 13.0539L19.0447 10.3976ZM19.0447 10.3976C18.8693 10.4353 18.8451 10.4448 18.8196 10.4567M19.0447 10.3976L18.8196 10.4567M18.8196 10.4567C18.7924 10.4693 18.7161 10.5096 18.5288 10.6674M18.8196 10.4567L18.5288 10.6674M18.5288 10.6674C18.1324 11.0013 17.4734 11.6549 16.0688 13.0539L18.5288 10.6674ZM12.5521 20.0479C12.5522 20.0478 12.5523 20.0449 12.5522 20.0397C12.552 20.0454 12.552 20.0481 12.5521 20.0479Z" stroke="black" stroke-width="2"/>
<path d="M5.71845 14.1639L5.71845 14.1639L5.713 14.1651C4.91096 14.3352 4.3267 14.5778 3.67848 15.0067C2.73988 15.6294 1.97976 16.5706 1.57016 17.596C1.49062 17.7975 1.34419 18.2968 1.21054 18.8258C1.14606 19.0811 1.08945 19.3238 1.04973 19.5164C1.03836 19.5715 1.02958 19.617 1.02281 19.6538H5.2826C7.07878 19.6538 8.17294 19.6528 8.83769 19.6455C8.84838 19.5335 8.86368 19.4125 8.88301 19.278C8.93629 18.9072 9.03035 18.3705 9.18024 17.5488L9.18023 17.5488L9.18102 17.5446C9.38223 16.4678 9.62619 15.2963 9.72629 14.9718C9.82719 14.6407 9.94742 14.3512 10.0976 14.0792L9.10704 14.081H9.10525C6.23213 14.081 6.01811 14.0986 5.71845 14.1639Z" stroke="black" stroke-width="2"/>
</svg>
