<svg width="20" height="20" viewBox="0 0 20 20" fill="none" xmlns="http://www.w3.org/2000/svg">
<g clip-path="url(#clip0_842_615)">
<path d="M5.68125 8.3925L5.1375 10H3.75L6.0775 3.75H7.6825L10 10H8.54125L7.9975 8.3925H5.68125ZM7.72375 7.4725L6.875 4.945H6.81375L5.965 7.4725H7.72375Z" fill="black"/>
<path d="M0 2.5C0 1.83696 0.263392 1.20107 0.732233 0.732233C1.20107 0.263392 1.83696 0 2.5 0L11.25 0C11.913 0 12.5489 0.263392 13.0178 0.732233C13.4866 1.20107 13.75 1.83696 13.75 2.5V6.25H17.5C18.163 6.25 18.7989 6.51339 19.2678 6.98223C19.7366 7.45107 20 8.08696 20 8.75V17.5C20 18.163 19.7366 18.7989 19.2678 19.2678C18.7989 19.7366 18.163 20 17.5 20H8.75C8.08696 20 7.45107 19.7366 6.98223 19.2678C6.51339 18.7989 6.25 18.163 6.25 17.5V13.75H2.5C1.83696 13.75 1.20107 13.4866 0.732233 13.0178C0.263392 12.5489 0 11.913 0 11.25V2.5ZM2.5 1.25C2.16848 1.25 1.85054 1.3817 1.61612 1.61612C1.3817 1.85054 1.25 2.16848 1.25 2.5V11.25C1.25 11.5815 1.3817 11.8995 1.61612 12.1339C1.85054 12.3683 2.16848 12.5 2.5 12.5H11.25C11.5815 12.5 11.8995 12.3683 12.1339 12.1339C12.3683 11.8995 12.5 11.5815 12.5 11.25V2.5C12.5 2.16848 12.3683 1.85054 12.1339 1.61612C11.8995 1.3817 11.5815 1.25 11.25 1.25H2.5ZM11.4225 13.7437C11.6633 14.1196 11.9258 14.4721 12.21 14.8012C11.275 15.52 10.1187 16.0525 8.75 16.4163C8.9725 16.6875 9.31375 17.21 9.44375 17.5C10.85 17.0513 12.0437 16.445 13.0513 15.6325C14.0225 16.4637 15.225 17.0887 16.7138 17.4725C16.88 17.155 17.2313 16.6313 17.5 16.36C16.0938 16.0438 14.9288 15.4925 13.975 14.755C14.8263 13.8212 15.5025 12.6912 16.0012 11.3088H17.5V10H13.75V11.3088H14.7063C14.3088 12.3637 13.7812 13.2413 13.1163 13.9713C12.9325 13.7757 12.7593 13.5704 12.5975 13.3563C12.2445 13.5818 11.8404 13.7151 11.4225 13.7437Z" fill="black"/>
</g>
<defs>
<clipPath id="clip0_842_615">
<rect width="20" height="20" fill="white"/>
</clipPath>
</defs>
</svg>
