<svg width="16" height="17" viewBox="0 0 16 17" fill="none" xmlns="http://www.w3.org/2000/svg">
<path fill-rule="evenodd" clip-rule="evenodd" d="M11.4062 7.8346H4.59552C4.31952 7.8346 4.09552 7.6106 4.09552 7.3346C4.09552 7.05858 4.31952 6.83458 4.59552 6.83458H11.4062C11.6822 6.83458 11.9062 7.05858 11.9062 7.3346C11.9062 7.6106 11.6822 7.8346 11.4062 7.8346ZM14.0488 6.37991L12.0875 3.50125C11.7828 3.05058 11.2762 2.78125 10.7315 2.78125H5.27352C4.72952 2.78125 4.22352 3.05058 3.91885 3.49991L1.95218 6.37991C1.52285 7.00924 1.58085 7.8426 2.09352 8.40526L6.96416 13.7586C7.22883 14.0506 7.60616 14.2179 7.9995 14.2179C8.39283 14.2179 8.77083 14.0506 9.03483 13.7586L13.9062 8.40593C14.4188 7.84393 14.4775 7.01058 14.0488 6.37991Z" fill="white"/>
</svg>
